<?xml version="1.0" encoding="UTF-8"?><svg xmlns="http://www.w3.org/2000/svg" xmlns:xlink="http://www.w3.org/1999/xlink" viewBox="0 0 773.24 773.24"><defs><style>.ak{fill:#be1e2d;}.al{fill:url(#f);}.am{fill:url(#g);}.an{fill:url(#i);}.ao{fill:url(#h);}.ap{fill:url(#d);}.aq{fill:#f47929;}</style><radialGradient id="d" cx="368.26" cy="385.82" fx="368.26" fy="385.82" r="309.46" gradientTransform="translate(736.52 4243.97) rotate(-180) scale(1 10)" gradientUnits="userSpaceOnUse"><stop offset="0" stop-color="#f78d2a"/><stop offset="1" stop-color="#de3731"/></radialGradient><linearGradient id="f" x1="175.84" y1="472.69" x2="189.08" y2="154.48" gradientTransform="matrix(1, 0, 0, 1, 0, 0)" gradientUnits="userSpaceOnUse"><stop offset="0" stop-color="#860b17"/><stop offset=".16" stop-color="#be2727"/><stop offset=".28" stop-color="#e13a32"/><stop offset=".35" stop-color="#ef4136"/><stop offset=".77" stop-color="#f57d2c"/><stop offset="1" stop-color="#f89928"/></linearGradient><linearGradient id="g" x1="555.39" y1="479.08" x2="569.03" y2="151.16" xlink:href="#f"/><linearGradient id="h" x1="180.01" y1="179.52" x2="277.16" y2="32.94" gradientTransform="matrix(1, 0, 0, 1, 0, 0)" gradientUnits="userSpaceOnUse"><stop offset="0" stop-color="#fbb040"/><stop offset=".35" stop-color="#f15a29"/><stop offset=".77" stop-color="#f79438"/><stop offset="1" stop-color="#fbb040"/></linearGradient><linearGradient id="i" x1="2097.02" y1="179.03" x2="2194.17" y2="32.44" gradientTransform="translate(2653.87) rotate(-180) scale(1 -1)" xlink:href="#h"/></defs><g id="a"/><g id="b"><g id="c"><path class="ap" d="M501.36,398.29c189.44-90.25,103.16-245.28,99.2-252.19-.06-.08-.12-.17-.18-.25-4.44,18.53-13.61,40.3-30.98,64.31,19.17-43.48,9.29-79.57-3.01-102.8-40.06-37.97-91.01-64.54-147.69-74.56l4.45,3.68,.1,.08c76.4,23.35,132.11,94.05,132.93,177.9h0c0,.62,.02,1.24,.02,1.86,0,68.84-37.02,129.01-92.22,161.75-8.54,5.52-18.71,8.74-29.63,8.74-30.2,0-54.68-24.48-54.68-54.68s24.48-54.68,54.68-54.68c4.32,0,8.53,.52,12.56,1.47,.63,.03,1.24,.05,1.88,.1-5.43-38.64-40.76-20.67-62.35-10.5-58.58-49.11-80.2,51.34-149.37,48.96,9.87,11.39,45.06,10.74,69.7-1.03-16.28,22.64-10.51,56.29-.5,77.34-73.34-25.62-125.95-95.39-125.95-177.47,0-.8,.02-1.59,.03-2.38l-.45,.59,.45-.59c1.05-84.35,57.66-155.31,134.94-177.98l.27-.16,6.39-3.7c-58.35,9.43-110.84,36.38-151.88,75.3-12.28,23.24-22.14,59.3-2.98,102.76-17.36-23.99-26.53-45.76-30.97-64.28-.03,.04-.06,.08-.08,.12-2.98,5.14-91.45,161.5,99.13,252.29,0,0-98.88-4.11-124.62-26.51,7.62,27.12,75.26,112.74,165.06,113.44,32.09-.58,42.53,15.44,46.16,32.56-2,3.37-4,6.73-6,10.1-16.2,27.26-19.89,56.82-15.2,87.58,4.46,29.23,17.61,54.72,35.74,77.8,.92,1.17,1.94,2.27,2.54,2.96-.15-7.9-.93-15.95-.22-23.87,.4-4.48,2.52-9.29,5.19-12.98,4.23-5.83,6.47-5.18,8.99,1.36,2.41,6.25,4.88,12.47,7.32,18.7-.01,0-.03,0-.04,.01,1.3,5.58,2.62,11.16,3.9,16.74,3.23,14.06,5.12,28.28,4.67,43.34,1.48-1.27,2.6-2.06,3.51-3.04,6.83-7.37,14.14-14.37,20.32-22.24,30.36-38.67,46.1-82.48,45.34-131.91-.29-19.26-3.2-37.88-9.91-55.59-.01-.06-.01-.11-.03-.17-.08-.17-.16-.33-.25-.5-1.98-5.13-4.23-10.2-6.88-15.17-2.54-4.76-5.34-9.71-7.86-14.83-8.05-18.57,1.83-14.14,48.03-10.83,89.8-.7,157.44-86.32,165.06-113.44-25.75,22.4-124.62,26.51-124.62,26.51Zm55.49-184.79c-.24,.89-.38,1.37-.38,1.37,0,0,.14-.48,.38-1.37Zm.42-1.58c-.15,.59-.29,1.12-.4,1.54,.11-.42,.25-.95,.4-1.54Zm-193.1,72.44c-3.55,1.12-9.96-1.34-10.52-3.12-.56-1.78-1.22-1.36,2.33-2.48,3.55-1.12,13.05-1.43,13.61,.35,.56,1.78-1.86,4.13-5.41,5.24Z"/><g id="e"><path class="aq" d="M110.53,371.78c25.75,22.4,124.62,26.51,124.62,26.51-190.59-90.8-102.11-247.15-99.13-252.3l-.04,.05-11.47,18.45c-22.23,40.77-59.5,140.32,50.99,216.59-37.33-5.48-69.45-22.83-94.4-41.45h0v.04l.03,.03,.02,.06,.03,.09,.02,.04,.07,.17v.03l.08,.17,.04,.1c.03,.07,.06,.15,.1,.24l.02,.05c.04,.09,.08,.19,.12,.3l.03,.07c.04,.1,.09,.21,.14,.33l.03,.08c.05,.12,.1,.24,.15,.37l.04,.1c.06,.14,.12,.3,.19,.45l.02,.05c.06,.15,.13,.31,.2,.48l.04,.09c.07,.17,.14,.34,.22,.52l.04,.09c.09,.2,.18,.41,.27,.62v.03c.11,.22,.21,.45,.31,.69h0c.1,.24,.2,.47,.31,.71l.03,.06c.1,.22,.2,.44,.3,.67l.06,.13c.12,.26,.24,.53,.36,.8v.02c.26,.55,.52,1.14,.8,1.74l.03,.06c.13,.29,.27,.58,.41,.88l.04,.08c.14,.3,.28,.61,.43,.92l.04,.08c.16,.33,.32,.67,.48,1.01v.02c.17,.34,.34,.69,.51,1.04l.02,.04c.17,.36,.35,.72,.53,1.09v.02c.19,.37,.38,.75,.56,1.13v.02c.2,.38,.39,.77,.58,1.16v.02c.4,.78,.8,1.58,1.22,2.39l.04,.08c.64,1.26,1.31,2.56,2.02,3.91h0c.47,.91,.95,1.82,1.45,2.75l.02,.04c.24,.45,.49,.91,.74,1.37l.03,.06c.26,.47,.52,.95,.78,1.43v.02c.27,.47,.54,.95,.8,1.43l.03,.05c.28,.49,.55,.99,.84,1.49h0c.28,.5,.56,.99,.85,1.49l.02,.04c.29,.51,.58,1.01,.88,1.53v.02c.31,.52,.61,1.04,.92,1.56h0c.31,.52,.62,1.05,.93,1.58h0c.31,.53,.62,1.05,.93,1.57l.03,.05c.32,.53,.65,1.07,.97,1.61h0c.66,1.09,1.34,2.19,2.03,3.3h0c.34,.56,.68,1.1,1.03,1.65l.03,.05c.35,.55,.7,1.1,1.06,1.66l.02,.03c.36,.56,.72,1.12,1.09,1.69h0c.36,.56,.72,1.12,1.09,1.67l.04,.06c.36,.55,.73,1.1,1.1,1.66l.05,.07c.76,1.13,1.53,2.27,2.32,3.41l.05,.07c.39,.57,.79,1.14,1.19,1.71l.03,.05c.4,.57,.8,1.14,1.2,1.71l.04,.06c.4,.56,.8,1.12,1.2,1.68l.07,.1c.42,.58,.84,1.15,1.26,1.73l.03,.04c.43,.58,.86,1.16,1.29,1.75l.03,.03c.43,.57,.86,1.14,1.29,1.71l.06,.08c.44,.59,.89,1.17,1.34,1.76l.02,.03c.44,.58,.89,1.15,1.34,1.73l.05,.07c.44,.57,.89,1.14,1.34,1.7,.02,.03,.05,.06,.07,.09,.45,.56,.9,1.13,1.36,1.69l.08,.1c.45,.55,.9,1.11,1.36,1.66,.04,.05,.07,.09,.11,.14,.47,.57,.94,1.14,1.42,1.71l.07,.08c.48,.57,.95,1.13,1.44,1.7l.08,.09c.47,.55,.95,1.11,1.43,1.66,.04,.04,.08,.09,.11,.13,.47,.55,.95,1.09,1.44,1.64,.04,.05,.08,.1,.13,.14,.49,.56,.99,1.11,1.49,1.66,.03,.04,.06,.07,.1,.11,.5,.55,1,1.11,1.51,1.66,.03,.04,.07,.07,.1,.11,.51,.56,1.03,1.12,1.55,1.67,.03,.03,.05,.06,.08,.09,.51,.54,1.02,1.08,1.53,1.62,.04,.05,.09,.09,.13,.14,.51,.54,1.03,1.07,1.55,1.6,.05,.05,.09,.09,.14,.14,.51,.52,1.02,1.04,1.53,1.55,.06,.06,.12,.12,.18,.18,.52,.52,1.04,1.03,1.56,1.55,.06,.06,.12,.11,.17,.17,.53,.52,1.07,1.05,1.61,1.57,.05,.05,.1,.09,.14,.14,.55,.53,1.1,1.05,1.65,1.57,.04,.04,.09,.08,.13,.13,.54,.51,1.08,1.01,1.63,1.52,.06,.06,.12,.11,.18,.17,.54,.5,1.09,1,1.64,1.49,.07,.06,.13,.12,.19,.18,.55,.5,1.11,.99,1.67,1.48,.06,.06,.13,.11,.19,.17,.55,.49,1.11,.97,1.67,1.45,.07,.06,.14,.12,.21,.18,.55,.47,1.1,.94,1.66,1.41,.08,.07,.16,.14,.25,.21,.55,.46,1.1,.92,1.66,1.37,.09,.08,.18,.15,.28,.23,.56,.46,1.12,.91,1.68,1.36,.09,.07,.18,.15,.27,.22,.56,.44,1.12,.88,1.68,1.32,.1,.08,.2,.16,.3,.24,.56,.43,1.12,.86,1.69,1.29,.11,.08,.21,.16,.32,.24,.56,.42,1.13,.84,1.7,1.26,.11,.08,.22,.17,.34,.25,.57,.42,1.15,.84,1.73,1.26,.11,.08,.21,.15,.32,.23,.57,.41,1.14,.81,1.72,1.21,.12,.09,.24,.17,.37,.26,.58,.4,1.16,.8,1.75,1.19,.12,.08,.24,.16,.36,.24,.59,.4,1.18,.79,1.77,1.18,.12,.08,.24,.16,.36,.24,.58,.38,1.17,.75,1.76,1.13,.13,.09,.27,.17,.4,.26,.57,.36,1.14,.71,1.71,1.07,.16,.1,.31,.2,.47,.29,.58,.35,1.16,.7,1.75,1.05,.15,.09,.3,.18,.46,.27,.59,.35,1.18,.69,1.78,1.03,.15,.09,.3,.18,.45,.26,.58,.33,1.17,.66,1.76,.99,.17,.09,.33,.19,.5,.28,.6,.33,1.2,.65,1.8,.97,.16,.09,.32,.17,.48,.26,.59,.32,1.19,.63,1.79,.93,.17,.09,.34,.18,.51,.27,.59,.3,1.19,.6,1.79,.89,.18,.09,.36,.18,.54,.27,.58,.29,1.17,.57,1.76,.85,.2,.09,.4,.19,.6,.29,.59,.28,1.19,.55,1.79,.82,.2,.09,.39,.18,.59,.27,.6,.27,1.2,.53,1.8,.79,.2,.09,.4,.18,.61,.27,.6,.26,1.21,.51,1.81,.76,.21,.09,.41,.17,.62,.26,.61,.25,1.22,.49,1.83,.73,.21,.08,.42,.17,.62,.25,.6,.23,1.2,.46,1.81,.68,.23,.08,.45,.17,.68,.26,.61,.22,1.22,.44,1.83,.66,.23,.08,.45,.16,.67,.24,.6,.21,1.21,.41,1.82,.62,.24,.08,.48,.16,.72,.24,.61,.2,1.22,.39,1.83,.58,.24,.08,.49,.16,.73,.23,.6,.18,1.2,.36,1.8,.54,.26,.08,.52,.16,.78,.23,.59,.17,1.19,.33,1.78,.5,.28,.08,.55,.16,.83,.23,.59,.16,1.19,.31,1.79,.46,.28,.07,.56,.15,.84,.22,.58,.14,1.16,.28,1.74,.42,.31,.07,.61,.15,.92,.22,.58,.13,1.16,.26,1.74,.38,.31,.07,.63,.14,.94,.21,.6,.13,1.21,.24,1.81,.36,.3,.06,.6,.12,.9,.18,.59,.11,1.18,.21,1.77,.32,.33,.06,.65,.12,.97,.17,.58,.1,1.16,.19,1.74,.28,.34,.05,.68,.11,1.02,.16,.55,.08,1.11,.16,1.67,.23,.38,.05,.75,.11,1.13,.16,.56,.07,1.12,.13,1.68,.2,.38,.04,.75,.09,1.13,.13,.56,.06,1.13,.11,1.69,.17,.38,.04,.76,.08,1.15,.11,.59,.05,1.19,.1,1.79,.14,.36,.03,.72,.06,1.08,.09,.62,.04,1.24,.08,1.85,.11,.35,.02,.69,.04,1.04,.06,.57,.03,1.14,.05,1.71,.07,.41,.02,.81,.04,1.22,.05,.56,.02,1.12,.02,1.69,.03,.42,0,.84,.02,1.26,.03,.58,0,1.16,0,1.74,0,.41,0,.82,0,1.23,0,.59,0,1.19-.02,1.79-.03,.4,0,.8-.01,1.21-.02,.55-.02,1.1-.04,1.65-.06,.46-.02,.91-.03,1.38-.05,.54-.03,1.09-.06,1.63-.09,.47-.03,.94-.05,1.42-.08,.54-.04,1.09-.08,1.64-.13,.48-.04,.96-.07,1.44-.11,1.03-.09,2.06-.19,3.1-.3-89.8-.7-157.44-86.32-165.06-113.44Z"/><path class="al" d="M110.53,371.78c25.75,22.4,124.62,26.51,124.62,26.51-190.59-90.8-102.11-247.15-99.13-252.3l-.04,.05-11.47,18.45c-22.23,40.77-59.5,140.32,50.99,216.59-37.33-5.48-69.45-22.83-94.4-41.45h0v.04l.03,.03,.02,.06,.03,.09,.02,.04,.07,.17v.03l.08,.17,.04,.1c.03,.07,.06,.15,.1,.24l.02,.05c.04,.09,.08,.19,.12,.3l.03,.07c.04,.1,.09,.21,.14,.33l.03,.08c.05,.12,.1,.24,.15,.37l.04,.1c.06,.14,.12,.3,.19,.45l.02,.05c.06,.15,.13,.31,.2,.48l.04,.09c.07,.17,.14,.34,.22,.52l.04,.09c.09,.2,.18,.41,.27,.62v.03c.11,.22,.21,.45,.31,.69h0c.1,.24,.2,.47,.31,.71l.03,.06c.1,.22,.2,.44,.3,.67l.06,.13c.12,.26,.24,.53,.36,.8v.02c.26,.55,.52,1.14,.8,1.74l.03,.06c.13,.29,.27,.58,.41,.88l.04,.08c.14,.3,.28,.61,.43,.92l.04,.08c.16,.33,.32,.67,.48,1.01v.02c.17,.34,.34,.69,.51,1.04l.02,.04c.17,.36,.35,.72,.53,1.09v.02c.19,.37,.38,.75,.56,1.13v.02c.2,.38,.39,.77,.58,1.16v.02c.4,.78,.8,1.58,1.22,2.39l.04,.08c.64,1.26,1.31,2.56,2.02,3.91h0c.47,.91,.95,1.82,1.45,2.75l.02,.04c.24,.45,.49,.91,.74,1.37l.03,.06c.26,.47,.52,.95,.78,1.43v.02c.27,.47,.54,.95,.8,1.43l.03,.05c.28,.49,.55,.99,.84,1.49h0c.28,.5,.56,.99,.85,1.49l.02,.04c.29,.51,.58,1.01,.88,1.53v.02c.31,.52,.61,1.04,.92,1.56h0c.31,.52,.62,1.05,.93,1.58h0c.31,.53,.62,1.05,.93,1.57l.03,.05c.32,.53,.65,1.07,.97,1.61h0c.66,1.09,1.34,2.19,2.03,3.3h0c.34,.56,.68,1.1,1.03,1.65l.03,.05c.35,.55,.7,1.1,1.06,1.66l.02,.03c.36,.56,.72,1.12,1.09,1.69h0c.36,.56,.72,1.12,1.09,1.67l.04,.06c.36,.55,.73,1.1,1.1,1.66l.05,.07c.76,1.13,1.53,2.27,2.32,3.41l.05,.07c.39,.57,.79,1.14,1.19,1.71l.03,.05c.4,.57,.8,1.14,1.2,1.71l.04,.06c.4,.56,.8,1.12,1.2,1.68l.07,.1c.42,.58,.84,1.15,1.26,1.73l.03,.04c.43,.58,.86,1.16,1.29,1.75l.03,.03c.43,.57,.86,1.14,1.29,1.71l.06,.08c.44,.59,.89,1.17,1.34,1.76l.02,.03c.44,.58,.89,1.15,1.34,1.73l.05,.07c.44,.57,.89,1.14,1.34,1.7,.02,.03,.05,.06,.07,.09,.45,.56,.9,1.13,1.36,1.69l.08,.1c.45,.55,.9,1.11,1.36,1.66,.04,.05,.07,.09,.11,.14,.47,.57,.94,1.14,1.42,1.71l.07,.08c.48,.57,.95,1.13,1.44,1.7l.08,.09c.47,.55,.95,1.11,1.43,1.66,.04,.04,.08,.09,.11,.13,.47,.55,.95,1.09,1.44,1.64,.04,.05,.08,.1,.13,.14,.49,.56,.99,1.11,1.49,1.66,.03,.04,.06,.07,.1,.11,.5,.55,1,1.11,1.51,1.66,.03,.04,.07,.07,.1,.11,.51,.56,1.03,1.12,1.55,1.67,.03,.03,.05,.06,.08,.09,.51,.54,1.02,1.08,1.53,1.62,.04,.05,.09,.09,.13,.14,.51,.54,1.03,1.07,1.55,1.6,.05,.05,.09,.09,.14,.14,.51,.52,1.02,1.04,1.53,1.55,.06,.06,.12,.12,.18,.18,.52,.52,1.04,1.03,1.56,1.55,.06,.06,.12,.11,.17,.17,.53,.52,1.07,1.05,1.61,1.57,.05,.05,.1,.09,.14,.14,.55,.53,1.1,1.05,1.65,1.57,.04,.04,.09,.08,.13,.13,.54,.51,1.08,1.01,1.63,1.52,.06,.06,.12,.11,.18,.17,.54,.5,1.09,1,1.64,1.49,.07,.06,.13,.12,.19,.18,.55,.5,1.11,.99,1.67,1.48,.06,.06,.13,.11,.19,.17,.55,.49,1.11,.97,1.67,1.45,.07,.06,.14,.12,.21,.18,.55,.47,1.1,.94,1.66,1.41,.08,.07,.16,.14,.25,.21,.55,.46,1.1,.92,1.66,1.37,.09,.08,.18,.15,.28,.23,.56,.46,1.12,.91,1.68,1.36,.09,.07,.18,.15,.27,.22,.56,.44,1.12,.88,1.68,1.32,.1,.08,.2,.16,.3,.24,.56,.43,1.12,.86,1.69,1.29,.11,.08,.21,.16,.32,.24,.56,.42,1.13,.84,1.7,1.26,.11,.08,.22,.17,.34,.25,.57,.42,1.15,.84,1.73,1.26,.11,.08,.21,.15,.32,.23,.57,.41,1.14,.81,1.72,1.21,.12,.09,.24,.17,.37,.26,.58,.4,1.16,.8,1.75,1.19,.12,.08,.24,.16,.36,.24,.59,.4,1.18,.79,1.77,1.18,.12,.08,.24,.16,.36,.24,.58,.38,1.17,.75,1.76,1.13,.13,.09,.27,.17,.4,.26,.57,.36,1.14,.71,1.71,1.07,.16,.1,.31,.2,.47,.29,.58,.35,1.16,.7,1.75,1.05,.15,.09,.3,.18,.46,.27,.59,.35,1.18,.69,1.78,1.03,.15,.09,.3,.18,.45,.26,.58,.33,1.17,.66,1.76,.99,.17,.09,.33,.19,.5,.28,.6,.33,1.2,.65,1.8,.97,.16,.09,.32,.17,.48,.26,.59,.32,1.19,.63,1.79,.93,.17,.09,.34,.18,.51,.27,.59,.3,1.19,.6,1.79,.89,.18,.09,.36,.18,.54,.27,.58,.29,1.17,.57,1.76,.85,.2,.09,.4,.19,.6,.29,.59,.28,1.19,.55,1.79,.82,.2,.09,.39,.18,.59,.27,.6,.27,1.2,.53,1.8,.79,.2,.09,.4,.18,.61,.27,.6,.26,1.21,.51,1.81,.76,.21,.09,.41,.17,.62,.26,.61,.25,1.22,.49,1.83,.73,.21,.08,.42,.17,.62,.25,.6,.23,1.2,.46,1.81,.68,.23,.08,.45,.17,.68,.26,.61,.22,1.22,.44,1.83,.66,.23,.08,.45,.16,.67,.24,.6,.21,1.21,.41,1.82,.62,.24,.08,.48,.16,.72,.24,.61,.2,1.22,.39,1.83,.58,.24,.08,.49,.16,.73,.23,.6,.18,1.2,.36,1.8,.54,.26,.08,.52,.16,.78,.23,.59,.17,1.19,.33,1.78,.5,.28,.08,.55,.16,.83,.23,.59,.16,1.19,.31,1.79,.46,.28,.07,.56,.15,.84,.22,.58,.14,1.16,.28,1.74,.42,.31,.07,.61,.15,.92,.22,.58,.13,1.16,.26,1.74,.38,.31,.07,.63,.14,.94,.21,.6,.13,1.21,.24,1.81,.36,.3,.06,.6,.12,.9,.18,.59,.11,1.18,.21,1.77,.32,.33,.06,.65,.12,.97,.17,.58,.1,1.16,.19,1.74,.28,.34,.05,.68,.11,1.02,.16,.55,.08,1.11,.16,1.67,.23,.38,.05,.75,.11,1.13,.16,.56,.07,1.12,.13,1.68,.2,.38,.04,.75,.09,1.13,.13,.56,.06,1.13,.11,1.69,.17,.38,.04,.76,.08,1.15,.11,.59,.05,1.19,.1,1.79,.14,.36,.03,.72,.06,1.08,.09,.62,.04,1.24,.08,1.85,.11,.35,.02,.69,.04,1.04,.06,.57,.03,1.14,.05,1.71,.07,.41,.02,.81,.04,1.22,.05,.56,.02,1.12,.02,1.69,.03,.42,0,.84,.02,1.26,.03,.58,0,1.16,0,1.74,0,.41,0,.82,0,1.23,0,.59,0,1.19-.02,1.79-.03,.4,0,.8-.01,1.21-.02,.55-.02,1.1-.04,1.65-.06,.46-.02,.91-.03,1.38-.05,.54-.03,1.09-.06,1.63-.09,.47-.03,.94-.05,1.42-.08,.54-.04,1.09-.08,1.64-.13,.48-.04,.96-.07,1.44-.11,1.03-.09,2.06-.19,3.1-.3-89.8-.7-157.44-86.32-165.06-113.44Z"/><path class="aq" d="M655.4,339.68v-.03c-24.95,18.62-57.07,35.96-94.39,41.45,110.49-76.27,73.22-175.82,50.99-216.59l-11.37-18.29s-.05-.07-.07-.1c3.97,6.91,90.25,161.93-99.2,252.19,0,0,98.88-4.11,124.62-26.51-7.62,27.12-75.26,112.74-165.06,113.44,1.03,.11,2.06,.21,3.09,.3,.3,.03,.59,.04,.89,.07,.73,.06,1.45,.12,2.17,.17,.39,.03,.78,.04,1.17,.07,.62,.04,1.25,.08,1.87,.11,.42,.02,.84,.03,1.26,.05,.58,.02,1.17,.05,1.75,.07,.46,.01,.91,.02,1.36,.03,.54,.01,1.08,.03,1.62,.03,.46,0,.92,0,1.38,0,.53,0,1.06,0,1.59,0,.44,0,.89-.02,1.33-.03,.53-.01,1.07-.02,1.6-.03,.45-.01,.9-.04,1.35-.05,.52-.02,1.04-.04,1.55-.06,.46-.02,.92-.05,1.38-.08,.5-.03,1-.06,1.5-.09,.46-.03,.92-.07,1.38-.11,.49-.04,.99-.07,1.48-.12,.46-.04,.91-.09,1.37-.13,.49-.05,.98-.09,1.46-.14,.45-.05,.9-.11,1.35-.16,.49-.06,.97-.11,1.46-.17,.45-.06,.89-.12,1.34-.18,.48-.07,.96-.13,1.44-.2,.45-.07,.89-.14,1.34-.21,.47-.07,.95-.15,1.42-.22,.44-.07,.88-.15,1.31-.23,.47-.08,.94-.16,1.41-.25,.44-.08,.88-.17,1.32-.26,.46-.09,.92-.18,1.37-.27,.44-.09,.88-.19,1.32-.28,.45-.1,.91-.19,1.36-.3,.44-.1,.87-.2,1.31-.31,.45-.11,.9-.21,1.34-.32,.44-.11,.87-.22,1.31-.33,.44-.11,.88-.22,1.32-.34,.43-.12,.86-.24,1.29-.36,.44-.12,.87-.24,1.31-.36,.43-.12,.85-.25,1.28-.38,.43-.13,.86-.25,1.29-.39,.42-.13,.85-.27,1.27-.4,.43-.14,.86-.27,1.28-.41,.42-.14,.84-.28,1.26-.42,.42-.14,.84-.28,1.26-.43,.42-.15,.84-.3,1.26-.45,.41-.15,.83-.29,1.24-.44,.42-.15,.83-.31,1.25-.47,.41-.15,.82-.31,1.23-.46,.41-.16,.82-.32,1.23-.49,.41-.16,.81-.32,1.22-.48,.41-.17,.81-.34,1.22-.51,.4-.17,.8-.33,1.2-.5,.4-.17,.8-.35,1.2-.52,.4-.17,.8-.35,1.2-.53,.4-.18,.79-.36,1.19-.54,.4-.18,.79-.36,1.19-.54,.39-.18,.79-.37,1.18-.56,.39-.19,.78-.37,1.17-.56,.39-.19,.78-.39,1.17-.58,.38-.19,.77-.38,1.15-.57,.39-.2,.78-.4,1.17-.6,.38-.2,.76-.39,1.13-.59,.38-.2,.77-.41,1.15-.61,.38-.2,.75-.4,1.12-.61,.38-.21,.76-.42,1.13-.63,.37-.21,.74-.41,1.11-.62,.37-.21,.74-.43,1.12-.64,.37-.21,.74-.43,1.11-.64,.37-.22,.74-.44,1.1-.66,.36-.22,.73-.44,1.09-.66,.37-.22,.73-.45,1.1-.67,.36-.22,.72-.44,1.08-.67,.36-.23,.72-.46,1.09-.69,.35-.23,.71-.45,1.06-.68,.36-.24,.72-.47,1.08-.71,.35-.23,.69-.46,1.04-.69,.36-.24,.72-.48,1.08-.73,.34-.23,.68-.46,1.03-.7,.35-.24,.7-.49,1.06-.74,.34-.24,.68-.48,1.02-.72,.35-.25,.7-.5,1.04-.75,.34-.24,.67-.49,1.01-.73,.34-.25,.69-.5,1.03-.76,.33-.25,.66-.49,.99-.74,.34-.26,.68-.51,1.02-.77,.33-.25,.66-.5,.99-.75,.33-.26,.67-.52,1-.78,.32-.25,.65-.51,.97-.76,.33-.26,.67-.53,1-.8,.32-.25,.64-.51,.95-.77,.33-.27,.66-.54,.99-.81,.31-.26,.63-.51,.94-.77,.33-.27,.65-.55,.98-.82,.31-.26,.62-.52,.92-.78,.32-.28,.64-.55,.96-.83,.31-.26,.61-.53,.91-.79,.32-.28,.63-.56,.95-.84,.3-.27,.6-.53,.9-.8,.31-.28,.63-.56,.94-.85,.3-.27,.59-.54,.89-.81,.31-.28,.62-.57,.92-.85,.29-.27,.59-.54,.88-.82,.3-.29,.61-.57,.91-.86,.29-.28,.58-.55,.87-.83,.3-.29,.6-.58,.9-.87,.28-.27,.57-.55,.85-.82,.3-.29,.6-.59,.9-.89,.28-.27,.55-.55,.83-.82,.3-.3,.6-.6,.89-.9,.27-.27,.54-.55,.81-.82,.29-.3,.58-.59,.87-.89,.27-.28,.55-.57,.82-.85,.28-.29,.56-.59,.84-.88,.27-.29,.54-.57,.81-.86,.28-.3,.56-.6,.84-.9,.26-.28,.52-.56,.78-.84,.28-.3,.56-.61,.84-.91,.26-.28,.52-.57,.77-.85,.28-.31,.55-.61,.83-.92,.25-.28,.5-.56,.75-.84,.27-.31,.54-.61,.82-.92,.25-.29,.5-.57,.75-.86,.27-.3,.53-.61,.79-.91,.25-.29,.5-.57,.74-.86,.26-.31,.52-.61,.78-.92,.24-.29,.49-.58,.73-.86,.26-.31,.51-.61,.77-.92,.24-.29,.48-.57,.72-.86,.26-.31,.51-.62,.76-.92,.23-.29,.47-.57,.7-.86,.25-.31,.5-.62,.75-.93,.23-.29,.46-.57,.69-.86,.25-.31,.49-.61,.74-.92,.23-.29,.45-.57,.68-.86,.24-.31,.49-.62,.73-.93,.22-.28,.44-.57,.66-.85,.24-.31,.48-.62,.72-.93,.22-.29,.44-.57,.66-.86,.23-.3,.46-.61,.69-.91,.22-.29,.43-.58,.65-.86,.23-.31,.46-.62,.69-.92,.21-.28,.41-.56,.62-.84,.23-.31,.46-.63,.69-.94,.2-.28,.41-.56,.61-.84,.23-.31,.45-.62,.67-.93,.2-.28,.4-.56,.6-.84,.22-.31,.44-.61,.65-.92,.2-.28,.4-.56,.6-.84,.22-.31,.43-.61,.65-.92,.19-.27,.38-.54,.57-.81,.22-.31,.43-.62,.65-.93,.19-.27,.37-.54,.56-.81,.21-.31,.42-.61,.63-.92,.19-.27,.37-.55,.55-.82,.2-.3,.41-.6,.61-.91,.18-.27,.37-.55,.55-.82,.2-.3,.4-.6,.59-.9,.18-.27,.36-.54,.53-.81,.2-.3,.39-.6,.59-.9,.17-.27,.35-.54,.52-.8,.19-.29,.38-.59,.57-.88,.17-.27,.34-.54,.52-.81,.19-.29,.38-.59,.56-.88,.16-.26,.33-.52,.49-.77,.19-.3,.38-.6,.56-.9,.16-.25,.32-.51,.47-.76,.18-.29,.36-.59,.54-.88,.16-.26,.32-.52,.48-.78,.17-.29,.35-.57,.52-.85,.16-.26,.31-.51,.47-.77,.17-.28,.34-.57,.51-.85,.15-.25,.3-.5,.45-.76,.17-.28,.34-.56,.5-.84,.15-.25,.3-.5,.44-.75,.16-.27,.32-.55,.48-.82,.14-.25,.29-.49,.43-.73,.16-.28,.33-.56,.49-.84,.14-.24,.27-.47,.41-.71,.16-.27,.31-.55,.47-.82,.14-.24,.27-.47,.4-.71,.15-.27,.31-.54,.46-.81,.13-.23,.26-.46,.38-.68,.15-.27,.3-.54,.45-.81,.12-.22,.25-.44,.37-.67,.15-.27,.3-.54,.44-.8,.12-.22,.24-.44,.36-.66,.14-.26,.28-.52,.42-.77,.12-.22,.24-.45,.36-.67,.14-.25,.27-.5,.4-.75,.12-.22,.23-.43,.34-.64,.13-.25,.27-.5,.4-.75,.11-.21,.22-.42,.33-.63,.13-.25,.26-.49,.39-.73,.11-.2,.21-.4,.31-.6,.13-.25,.26-.5,.39-.74,.1-.19,.19-.37,.29-.56,.13-.25,.26-.5,.38-.74,.1-.19,.19-.37,.29-.56,.12-.24,.24-.47,.36-.71,.1-.19,.19-.38,.29-.57,.11-.23,.23-.46,.34-.68,.09-.18,.18-.35,.26-.53,.11-.23,.23-.45,.34-.68,.09-.18,.17-.35,.26-.53,.11-.22,.22-.44,.32-.65,.08-.16,.16-.33,.24-.49,.11-.22,.22-.45,.32-.66,.07-.14,.14-.29,.21-.43,.11-.23,.22-.46,.33-.68,.07-.15,.14-.29,.21-.43,.1-.21,.2-.42,.3-.62,.07-.15,.14-.3,.21-.45,.09-.2,.19-.4,.28-.59,.07-.15,.14-.29,.21-.44,.09-.18,.17-.37,.26-.55,.06-.14,.13-.27,.19-.41,.09-.19,.18-.38,.26-.56,.05-.11,.1-.23,.16-.34,.09-.19,.18-.39,.26-.57,.05-.11,.1-.21,.14-.32,.09-.19,.18-.39,.26-.57,.04-.09,.08-.18,.12-.27,.08-.18,.17-.37,.24-.54,.05-.12,.1-.23,.15-.34,.07-.15,.14-.3,.2-.45,.04-.1,.08-.19,.12-.28,.07-.16,.14-.33,.21-.48,.03-.06,.05-.12,.08-.19,.08-.17,.15-.34,.22-.51,.04-.08,.07-.16,.1-.24,.06-.14,.12-.28,.18-.41,.04-.1,.08-.19,.12-.28,.05-.11,.1-.22,.14-.33,.03-.08,.07-.15,.1-.23,.05-.12,.1-.23,.15-.34l.06-.14c.05-.13,.11-.26,.16-.38l.06-.14c.05-.11,.09-.22,.13-.32l.07-.18c.03-.08,.07-.16,.1-.23l.06-.14c.08-.2,.16-.39,.22-.54l.03-.08,.07-.18v-.04c.07-.13,.1-.23,.13-.3l.03-.08v-.03Z"/><path class="am" d="M655.4,339.68v-.03c-24.95,18.62-57.07,35.96-94.39,41.45,110.49-76.27,73.22-175.82,50.99-216.59l-11.37-18.29s-.05-.07-.07-.1c3.97,6.91,90.25,161.93-99.2,252.19,0,0,98.88-4.11,124.62-26.51-7.62,27.12-75.26,112.74-165.06,113.44,1.03,.11,2.06,.21,3.09,.3,.3,.03,.59,.04,.89,.07,.73,.06,1.45,.12,2.17,.17,.39,.03,.78,.04,1.17,.07,.62,.04,1.25,.08,1.87,.11,.42,.02,.84,.03,1.26,.05,.58,.02,1.17,.05,1.75,.07,.46,.01,.91,.02,1.36,.03,.54,.01,1.08,.03,1.62,.03,.46,0,.92,0,1.38,0,.53,0,1.06,0,1.59,0,.44,0,.89-.02,1.33-.03,.53-.01,1.07-.02,1.6-.03,.45-.01,.9-.04,1.35-.05,.52-.02,1.04-.04,1.55-.06,.46-.02,.92-.05,1.38-.08,.5-.03,1-.06,1.5-.09,.46-.03,.92-.07,1.38-.11,.49-.04,.99-.07,1.48-.12,.46-.04,.91-.09,1.37-.13,.49-.05,.98-.09,1.46-.14,.45-.05,.9-.11,1.35-.16,.49-.06,.97-.11,1.46-.17,.45-.06,.89-.12,1.34-.18,.48-.07,.96-.13,1.44-.2,.45-.07,.89-.14,1.34-.21,.47-.07,.95-.15,1.42-.22,.44-.07,.88-.15,1.31-.23,.47-.08,.94-.16,1.41-.25,.44-.08,.88-.17,1.32-.26,.46-.09,.92-.18,1.37-.27,.44-.09,.88-.19,1.32-.28,.45-.1,.91-.19,1.36-.3,.44-.1,.87-.2,1.31-.31,.45-.11,.9-.21,1.34-.32,.44-.11,.87-.22,1.31-.33,.44-.11,.88-.22,1.32-.34,.43-.12,.86-.24,1.29-.36,.44-.12,.87-.24,1.31-.36,.43-.12,.85-.25,1.28-.38,.43-.13,.86-.25,1.29-.39,.42-.13,.85-.27,1.27-.4,.43-.14,.86-.27,1.28-.41,.42-.14,.84-.28,1.26-.42,.42-.14,.84-.28,1.26-.43,.42-.15,.84-.3,1.26-.45,.41-.15,.83-.29,1.24-.44,.42-.15,.83-.31,1.25-.47,.41-.15,.82-.31,1.23-.46,.41-.16,.82-.32,1.23-.49,.41-.16,.81-.32,1.22-.48,.41-.17,.81-.34,1.22-.51,.4-.17,.8-.33,1.2-.5,.4-.17,.8-.35,1.2-.52,.4-.17,.8-.35,1.2-.53,.4-.18,.79-.36,1.19-.54,.4-.18,.79-.36,1.19-.54,.39-.18,.79-.37,1.18-.56,.39-.19,.78-.37,1.17-.56,.39-.19,.78-.39,1.17-.58,.38-.19,.77-.38,1.15-.57,.39-.2,.78-.4,1.17-.6,.38-.2,.76-.39,1.13-.59,.38-.2,.77-.41,1.15-.61,.38-.2,.75-.4,1.12-.61,.38-.21,.76-.42,1.13-.63,.37-.21,.74-.41,1.11-.62,.37-.21,.74-.43,1.12-.64,.37-.21,.74-.43,1.11-.64,.37-.22,.74-.44,1.1-.66,.36-.22,.73-.44,1.09-.66,.37-.22,.73-.45,1.1-.67,.36-.22,.72-.44,1.08-.67,.36-.23,.72-.46,1.09-.69,.35-.23,.71-.45,1.06-.68,.36-.24,.72-.47,1.08-.71,.35-.23,.69-.46,1.04-.69,.36-.24,.72-.48,1.08-.73,.34-.23,.68-.46,1.03-.7,.35-.24,.7-.49,1.06-.74,.34-.24,.68-.48,1.02-.72,.35-.25,.7-.5,1.04-.75,.34-.24,.67-.49,1.01-.73,.34-.25,.69-.5,1.03-.76,.33-.25,.66-.49,.99-.74,.34-.26,.68-.51,1.02-.77,.33-.25,.66-.5,.99-.75,.33-.26,.67-.52,1-.78,.32-.25,.65-.51,.97-.76,.33-.26,.67-.53,1-.8,.32-.25,.64-.51,.95-.77,.33-.27,.66-.54,.99-.81,.31-.26,.63-.51,.94-.77,.33-.27,.65-.55,.98-.82,.31-.26,.62-.52,.92-.78,.32-.28,.64-.55,.96-.83,.31-.26,.61-.53,.91-.79,.32-.28,.63-.56,.95-.84,.3-.27,.6-.53,.9-.8,.31-.28,.63-.56,.94-.85,.3-.27,.59-.54,.89-.81,.31-.28,.62-.57,.92-.85,.29-.27,.59-.54,.88-.82,.3-.29,.61-.57,.91-.86,.29-.28,.58-.55,.87-.83,.3-.29,.6-.58,.9-.87,.28-.27,.57-.55,.85-.82,.3-.29,.6-.59,.9-.89,.28-.27,.55-.55,.83-.82,.3-.3,.6-.6,.89-.9,.27-.27,.54-.55,.81-.82,.29-.3,.58-.59,.87-.89,.27-.28,.55-.57,.82-.85,.28-.29,.56-.59,.84-.88,.27-.29,.54-.57,.81-.86,.28-.3,.56-.6,.84-.9,.26-.28,.52-.56,.78-.84,.28-.3,.56-.61,.84-.91,.26-.28,.52-.57,.77-.85,.28-.31,.55-.61,.83-.92,.25-.28,.5-.56,.75-.84,.27-.31,.54-.61,.82-.92,.25-.29,.5-.57,.75-.86,.27-.3,.53-.61,.79-.91,.25-.29,.5-.57,.74-.86,.26-.31,.52-.61,.78-.92,.24-.29,.49-.58,.73-.86,.26-.31,.51-.61,.77-.92,.24-.29,.48-.57,.72-.86,.26-.31,.51-.62,.76-.92,.23-.29,.47-.57,.7-.86,.25-.31,.5-.62,.75-.93,.23-.29,.46-.57,.69-.86,.25-.31,.49-.61,.74-.92,.23-.29,.45-.57,.68-.86,.24-.31,.49-.62,.73-.93,.22-.28,.44-.57,.66-.85,.24-.31,.48-.62,.72-.93,.22-.29,.44-.57,.66-.86,.23-.3,.46-.61,.69-.91,.22-.29,.43-.58,.65-.86,.23-.31,.46-.62,.69-.92,.21-.28,.41-.56,.62-.84,.23-.31,.46-.63,.69-.94,.2-.28,.41-.56,.61-.84,.23-.31,.45-.62,.67-.93,.2-.28,.4-.56,.6-.84,.22-.31,.44-.61,.65-.92,.2-.28,.4-.56,.6-.84,.22-.31,.43-.61,.65-.92,.19-.27,.38-.54,.57-.81,.22-.31,.43-.62,.65-.93,.19-.27,.37-.54,.56-.81,.21-.31,.42-.61,.63-.92,.19-.27,.37-.55,.55-.82,.2-.3,.41-.6,.61-.91,.18-.27,.37-.55,.55-.82,.2-.3,.4-.6,.59-.9,.18-.27,.36-.54,.53-.81,.2-.3,.39-.6,.59-.9,.17-.27,.35-.54,.52-.8,.19-.29,.38-.59,.57-.88,.17-.27,.34-.54,.52-.81,.19-.29,.38-.59,.56-.88,.16-.26,.33-.52,.49-.77,.19-.3,.38-.6,.56-.9,.16-.25,.32-.51,.47-.76,.18-.29,.36-.59,.54-.88,.16-.26,.32-.52,.48-.78,.17-.29,.35-.57,.52-.85,.16-.26,.31-.51,.47-.77,.17-.28,.34-.57,.51-.85,.15-.25,.3-.5,.45-.76,.17-.28,.34-.56,.5-.84,.15-.25,.3-.5,.44-.75,.16-.27,.32-.55,.48-.82,.14-.25,.29-.49,.43-.73,.16-.28,.33-.56,.49-.84,.14-.24,.27-.47,.41-.71,.16-.27,.31-.55,.47-.82,.14-.24,.27-.47,.4-.71,.15-.27,.31-.54,.46-.81,.13-.23,.26-.46,.38-.68,.15-.27,.3-.54,.45-.81,.12-.22,.25-.44,.37-.67,.15-.27,.3-.54,.44-.8,.12-.22,.24-.44,.36-.66,.14-.26,.28-.52,.42-.77,.12-.22,.24-.45,.36-.67,.14-.25,.27-.5,.4-.75,.12-.22,.23-.43,.34-.64,.13-.25,.27-.5,.4-.75,.11-.21,.22-.42,.33-.63,.13-.25,.26-.49,.39-.73,.11-.2,.21-.4,.31-.6,.13-.25,.26-.5,.39-.74,.1-.19,.19-.37,.29-.56,.13-.25,.26-.5,.38-.74,.1-.19,.19-.37,.29-.56,.12-.24,.24-.47,.36-.71,.1-.19,.19-.38,.29-.57,.11-.23,.23-.46,.34-.68,.09-.18,.18-.35,.26-.53,.11-.23,.23-.45,.34-.68,.09-.18,.17-.35,.26-.53,.11-.22,.22-.44,.32-.65,.08-.16,.16-.33,.24-.49,.11-.22,.22-.45,.32-.66,.07-.14,.14-.29,.21-.43,.11-.23,.22-.46,.33-.68,.07-.15,.14-.29,.21-.43,.1-.21,.2-.42,.3-.62,.07-.15,.14-.3,.21-.45,.09-.2,.19-.4,.28-.59,.07-.15,.14-.29,.21-.44,.09-.18,.17-.37,.26-.55,.06-.14,.13-.27,.19-.41,.09-.19,.18-.38,.26-.56,.05-.11,.1-.23,.16-.34,.09-.19,.18-.39,.26-.57,.05-.11,.1-.21,.14-.32,.09-.19,.18-.39,.26-.57,.04-.09,.08-.18,.12-.27,.08-.18,.17-.37,.24-.54,.05-.12,.1-.23,.15-.34,.07-.15,.14-.3,.2-.45,.04-.1,.08-.19,.12-.28,.07-.16,.14-.33,.21-.48,.03-.06,.05-.12,.08-.19,.08-.17,.15-.34,.22-.51,.04-.08,.07-.16,.1-.24,.06-.14,.12-.28,.18-.41,.04-.1,.08-.19,.12-.28,.05-.11,.1-.22,.14-.33,.03-.08,.07-.15,.1-.23,.05-.12,.1-.23,.15-.34l.06-.14c.05-.13,.11-.26,.16-.38l.06-.14c.05-.11,.09-.22,.13-.32l.07-.18c.03-.08,.07-.16,.1-.23l.06-.14c.08-.2,.16-.39,.22-.54l.03-.08,.07-.18v-.04c.07-.13,.1-.23,.13-.3l.03-.08v-.03Z"/><path class="ao" d="M315.28,35.97l.27-.16c-11.49,2.89-89.29,24.07-132.11,77.74-22.58,37.63-3.8,101.32-3.8,101.32l.71-.92c1.05-84.35,57.66-155.31,134.94-177.98Z"/><path class="an" d="M556.17,214.47l.3,.39s18.78-63.69-3.8-101.32c-40.39-50.61-111.88-72.33-129.53-77.06l.1,.08c76.4,23.35,132.11,94.05,132.93,177.9Z"/><path class="ak" d="M441.35,383.15c-30.2,0-54.68-24.48-54.68-54.68,0-19.67,10.39-36.91,25.98-46.54-19.41,8.4-32.99,27.71-32.99,50.2,0,30.2,24.48,54.68,54.68,54.68,10.53,0,20.36-2.98,28.7-8.14-6.65,2.88-13.98,4.48-21.69,4.48Z"/></g></g></g><g id="j"/><g id="k"/><g id="l"/><g id="m"/><g id="n"/><g id="o"/><g id="p"/><g id="q"/><g id="r"/><g id="s"/><g id="t"/><g id="u"/><g id="v"/><g id="w"/><g id="x"/><g id="y"/><g id="a`"/><g id="aa"/><g id="ab"/><g id="ac"/><g id="ad"/><g id="ae"/><g id="af"/><g id="ag"/><g id="ah"/><g id="ai"/><g id="aj"/></svg>